<?xml version="1.0" encoding="UTF-8"?>
<svg xmlns="http://www.w3.org/2000/svg" xmlns:xlink="http://www.w3.org/1999/xlink" id="Layer_1" data-name="Layer 1" viewBox="0 0 897 374.74">
  <defs>
    <style>.cls-1{fill-rule:evenodd;fill:url(#linear-gradient);}.cls-2,.cls-4{isolation:isolate;}.cls-3,.cls-4{fill:#fff;}.cls-4{font-size:82.09px;font-family:Arial-BoldMT, Arial;font-weight:700;}.cls-5{letter-spacing:-0.07em;}</style>
    <linearGradient id="linear-gradient" x1="-509.34" y1="727.05" x2="-508.41" y2="726.17" gradientTransform="matrix(329.95, 0, 0, -374.74, 168094.98, 272460.18)" gradientUnits="userSpaceOnUse">
      <stop offset="0" stop-color="#ff5e5e"></stop>
      <stop offset="1" stop-color="#ce2e2e"></stop>
    </linearGradient>
  </defs>
  <g id="logo-new-svg">
    <g id="logo-new">
      <path id="Rectangle_1" data-name="Rectangle 1" class="cls-1" d="M117.29,12H249.13C297.67,12,337,50.73,337,98.52V228.29c0,47.78-39.35,86.52-87.89,86.52H117.29c-48.54,0-87.9-38.74-87.9-86.52V98.52C29.39,50.73,68.75,12,117.29,12ZM135.1,67h96.21c28.21,0,51.08,22.51,51.08,50.27v94.7c0,.94,0,1.87,0,2.78.62,29.45,21.83,56.23,28.5,72.05,0,0,0,0,0,0-29.08-19.7-59.6-24.32-71.26-24.56-2.67-.05-5.3,0-8.32,0H135.1c-28.2,0-51.07-22.5-51.07-50.27v-94.7C84,89.46,106.9,67,135.1,67ZM261.6,324.16h76.62v2.92c0,19.7-16.22,35.66-36.23,35.66H225.37v-2.92C225.37,340.12,241.59,324.16,261.6,324.16Z"></path>
      <g id="Group_863" data-name="Group 863">
        <g id="qss" class="cls-2">
          <g class="cls-2">
            <path class="cls-3" d="M501.28,210.88q-16.93,0-29.61-7.18A49.47,49.47,0,0,1,452,183.48q-7-13-7-30.41V108.63q0-17.47,7-30.47A49.59,49.59,0,0,1,471.67,58q12.68-7.17,29.61-7.17T530.88,58a49.59,49.59,0,0,1,19.63,20.17q7,13,7,30.47v44.44q0,17.35-7,30.41a49.47,49.47,0,0,1-19.63,20.22Q518.2,210.89,501.28,210.88Zm0-25.57q13.47,0,21.57-8.62t8.08-22.87V107.88q0-14.35-8.08-22.92t-21.57-8.58q-13.38,0-21.52,8.58t-8.14,22.92v45.94q0,14.24,8.14,22.87T501.28,185.31Zm57.05,26.54-59.54-46.06,13.59-17.25,59.54,45.94Z"></path>
            <path class="cls-3" d="M654.51,210.88a104.6,104.6,0,0,1-21.73-2.21,87.41,87.41,0,0,1-19.47-6.53,79.58,79.58,0,0,1-16.72-10.68l13.7-20.6a63.9,63.9,0,0,0,20.33,11.6,72.08,72.08,0,0,0,23.89,3.93q15.75,0,24.43-5.61a17.81,17.81,0,0,0,8.68-15.85v-.11q0-7.87-4.36-12.08a26.61,26.61,0,0,0-11.49-6.2,149.05,149.05,0,0,0-15.53-3.4q-9-1.39-18.17-3.5a60.21,60.21,0,0,1-16.94-6.58,33.26,33.26,0,0,1-12.4-12.84Q604,111.87,604,98v-.11q0-22.43,14.83-34.72t41.9-12.3A80.62,80.62,0,0,1,686,55a90.62,90.62,0,0,1,24,12.24L697.55,88.46a72.35,72.35,0,0,0-18.45-9.87,55.25,55.25,0,0,0-18.33-3.29q-14.88,0-23,5.45a17.43,17.43,0,0,0-8.14,15.37v.11q0,8.19,4.8,12.45A30.13,30.13,0,0,0,646.91,115q7.71,2.06,16.66,3.89t17.64,4.2a59.35,59.35,0,0,1,16,7.12A33.79,33.79,0,0,1,708.82,143q4.36,8.15,4.37,21.19v.22q0,22.22-15.37,34.35T654.51,210.88Z"></path>
            <path class="cls-3" d="M799,210.88a104.6,104.6,0,0,1-21.73-2.21,87.41,87.41,0,0,1-19.47-6.53,79.26,79.26,0,0,1-16.71-10.68l13.69-20.6a63.9,63.9,0,0,0,20.33,11.6A72.08,72.08,0,0,0,799,186.39q15.75,0,24.43-5.61a17.81,17.81,0,0,0,8.68-15.85v-.11q0-7.87-4.36-12.08a26.61,26.61,0,0,0-11.49-6.2,148.49,148.49,0,0,0-15.53-3.4q-9-1.39-18.17-3.5a60.21,60.21,0,0,1-16.94-6.58,33.26,33.26,0,0,1-12.4-12.84q-4.69-8.35-4.69-22.27v-.11q0-22.43,14.83-34.72t41.9-12.3A80.62,80.62,0,0,1,830.51,55a90.62,90.62,0,0,1,24,12.24L842.05,88.46a72.35,72.35,0,0,0-18.45-9.87,55.25,55.25,0,0,0-18.33-3.29q-14.88,0-23,5.45a17.43,17.43,0,0,0-8.14,15.37v.11q0,8.19,4.8,12.45A30.13,30.13,0,0,0,791.41,115q7.71,2.06,16.66,3.89t17.64,4.2a59.35,59.35,0,0,1,16,7.12A33.79,33.79,0,0,1,853.32,143q4.36,8.15,4.37,21.19v.22q0,22.22-15.37,34.35T799,210.88Z"></path>
          </g>
        </g>
        <g id="Technosoft" class="cls-2">
          <text class="cls-4" transform="translate(430.92 302.21)">
            <tspan class="cls-5">T</tspan>
            <tspan x="44.05" y="0">echnosoft</tspan>
          </text>
        </g>
      </g>
    </g>
  </g>
</svg>
